<svg width="25" height="15" viewBox="0 0 25 15" fill="none" xmlns="http://www.w3.org/2000/svg">
<path d="M19.3812 0.55H15.3912V2.53C15.3912 5.32 14.6112 8.38 12.3612 10.51C10.0812 8.38 9.33117 5.26 9.33117 2.53V0.55H5.37117V2.5C5.37117 6.04 4.14117 9.79 0.241172 11.53L2.43117 14.38C4.95117 13.24 6.51117 11.17 7.41117 8.65C8.25117 11.23 9.78117 13.45 12.3312 14.74C14.8812 13.48 16.4412 11.26 17.3112 8.68C18.2112 11.2 19.8012 13.24 22.3212 14.38L24.4812 11.5C20.5812 9.82 19.3812 6.16 19.3812 2.5V0.55Z" fill="black"/>
</svg>
