<svg width="82" height="48" viewBox="0 0 82 48" fill="none" xmlns="http://www.w3.org/2000/svg">
<path d="M64.6039 0.499999H51.3039V7.1C51.3039 16.4 48.7039 26.6 41.2039 33.7C33.6039 26.6 31.1039 16.2 31.1039 7.1V0.499999H17.9039V7C17.9039 18.8 13.8039 31.3 0.803907 37.1L8.10391 46.6C16.5039 42.8 21.7039 35.9 24.7039 27.5C27.5039 36.1 32.6039 43.5 41.1039 47.8C49.6039 43.6 54.8039 36.2 57.7039 27.6C60.7039 36 66.0039 42.8 74.4039 46.6L81.6039 37C68.6039 31.4 64.6039 19.2 64.6039 7V0.499999Z" fill="black"/>
</svg>
