<svg width="26" height="17" viewBox="0 0 26 17" fill="none" xmlns="http://www.w3.org/2000/svg">
<path d="M24.2812 3.89V0.739999H13.9012V3.89H16.7812C16.6912 7.73 15.8812 10.73 13.3612 12.32C10.8112 10.73 10.0312 7.73 9.94117 3.89H12.7612V0.739999H2.41117V3.89H6.04117C5.92117 7.73 4.66117 11.36 0.851172 13.13L3.16117 16.19C5.38117 15.14 6.85117 13.46 7.78117 11.33C8.77117 13.79 10.4812 15.56 13.3612 16.61C16.2412 15.56 17.9212 13.79 18.9112 11.33C19.8412 13.46 21.3112 15.14 23.5012 16.19L25.8112 13.13C22.0312 11.36 20.7712 7.7 20.6512 3.89H24.2812Z" fill="black"/>
</svg>
