<svg width="84" height="54" viewBox="0 0 84 54" fill="none" xmlns="http://www.w3.org/2000/svg">
<path d="M78.6039 11.3V0.799998H44.0039V11.3H53.6039C53.3039 24.1 50.6039 34.1 42.2039 39.4C33.7039 34.1 31.1039 24.1 30.8039 11.3H40.2039V0.799998H5.70391V11.3H17.8039C17.4039 24.1 13.2039 36.2 0.503907 42.1L8.20391 52.3C15.6039 48.8 20.5039 43.2 23.6039 36.1C26.9039 44.3 32.6039 50.2 42.2039 53.7C51.8039 50.2 57.4039 44.3 60.7039 36.1C63.8039 43.2 68.7039 48.8 76.0039 52.3L83.7039 42.1C71.1039 36.2 66.9039 24 66.5039 11.3H78.6039Z" fill="black"/>
</svg>
