<svg width="62" height="63" viewBox="0 0 62 63" fill="none" xmlns="http://www.w3.org/2000/svg">
<path d="M31.4039 51.8C25.3039 51.8 20.7039 49.5 20.7039 44.9C20.7039 40.3 25.3039 38 31.4039 38C37.4039 38 42.1039 40.3 42.1039 44.9C42.1039 49.5 37.4039 51.8 31.4039 51.8ZM31.4039 26.9C17.5039 26.9 7.20391 34.4 7.20391 44.9C7.20391 55.4 17.5039 62.8 31.4039 62.8C45.3039 62.8 55.5039 55.4 55.5039 44.9C55.5039 34.4 45.3039 26.9 31.4039 26.9ZM38.0039 11.5V0.2H24.8039V11.5H0.903907V22.2H61.6039V11.5H38.0039Z" fill="black"/>
</svg>
