<svg width="20" height="20" viewBox="0 0 20 20" fill="none" xmlns="http://www.w3.org/2000/svg">
<path d="M10.1212 16.24C8.29117 16.24 6.91117 15.55 6.91117 14.17C6.91117 12.79 8.29117 12.1 10.1212 12.1C11.9212 12.1 13.3312 12.79 13.3312 14.17C13.3312 15.55 11.9212 16.24 10.1212 16.24ZM10.1212 8.77C5.95117 8.77 2.86117 11.02 2.86117 14.17C2.86117 17.32 5.95117 19.54 10.1212 19.54C14.2912 19.54 17.3512 17.32 17.3512 14.17C17.3512 11.02 14.2912 8.77 10.1212 8.77ZM12.1012 4.15V0.76H8.14117V4.15H0.971172V7.36H19.1812V4.15H12.1012Z" fill="white"/>
</svg>
